<?xml version="1.0" encoding="utf-8"?>
<!-- Generator: Adobe Illustrator 19.2.0, SVG Export Plug-In . SVG Version: 6.00 Build 0)  -->
<svg version="1.1"
	 id="Layer_1" xmlns:cc="http://creativecommons.org/ns#" xmlns:dc="http://purl.org/dc/elements/1.1/" xmlns:inkscape="http://www.inkscape.org/namespaces/inkscape" xmlns:rdf="http://www.w3.org/1999/02/22-rdf-syntax-ns#" xmlns:sodipodi="http://sodipodi.sourceforge.net/DTD/sodipodi-0.dtd" xmlns:svg="http://www.w3.org/2000/svg"
	 xmlns="http://www.w3.org/2000/svg" xmlns:xlink="http://www.w3.org/1999/xlink" x="0px" y="0px" viewBox="0 0 100 100"
	 style="enable-background:new 0 0 100 100;" xml:space="preserve">
<style type="text/css">
	.st0{fill:#FFFFFF;}
</style>
<g transform="translate(0,-952.36218)">
	<path class="st0" d="M50,972.4c-1.8,0-3.4,0.7-4.7,2c-1.3,1.3-1.9,2.9-1.9,4.7s0.6,3.4,1.9,4.7s2.9,1.9,4.7,1.9s3.4-0.6,4.7-1.9
		c1.3-1.3,2-2.9,2-4.7s-0.6-3.4-1.9-4.7C53.4,973,51.9,972.4,50,972.4z M40,992.4v2.5c1.3,0.1,5,2.5,5,5v25c0,2.4-1.6,4.9-5,5v2.5
		h20v-2.5c-2.4-0.2-5-1.4-5-5v-32.5H40z"/>
	<path class="st0" d="M50,957.4c-24.8,0-45,20.2-45,45c0,24.8,20.2,45,45,45s45-20.2,45-45C95,977.5,74.8,957.4,50,957.4z M50,962.4
		c22.1,0,40,17.9,40,40s-17.9,40-40,40s-40-17.9-40-40S27.9,962.4,50,962.4z"/>
</g>
</svg>
