<svg xmlns="http://www.w3.org/2000/svg" viewBox="0 0 90 90"><title>info-icon</title><path d="M49.979,20a6.35,6.35,0,0,0-4.713,1.988,6.684,6.684,0,0,0,0,9.424,6.679,6.679,0,0,0,9.424,0A6.346,6.346,0,0,0,56.678,26.7,6.712,6.712,0,0,0,49.979,20ZM40,40v2.5c1.305,0.079,5,2.5,5,5v25a4.874,4.874,0,0,1-5,5V80H60V77.5c-2.428-.15-4.979-1.36-5-5V40H40Z" transform="translate(-5 -4.999)"/><path d="M50,5A45,45,0,1,0,95,50,45.038,45.038,0,0,0,50,5Zm0,5A40,40,0,1,1,10,50,39.962,39.962,0,0,1,50,10Z" transform="translate(-5 -4.999)"/></svg>